<svg width="15" height="15" viewBox="0 0 15 15" fill="none" xmlns="http://www.w3.org/2000/svg">
<path d="M7.5 0C3.35826 0 0 3.35826 0 7.5C0 11.6417 3.35826 15 7.5 15C11.6417 15 15 11.6417 15 7.5C15 3.35826 11.6417 0 7.5 0ZM10.7394 5.05078L7.21373 9.93917C7.16445 10.008 7.09949 10.064 7.02423 10.1027C6.94897 10.1413 6.86558 10.1615 6.78097 10.1615C6.69636 10.1615 6.61297 10.1413 6.53771 10.1027C6.46245 10.064 6.39749 10.008 6.34821 9.93917L4.2606 7.04632C4.19699 6.95759 4.2606 6.83371 4.36942 6.83371H5.15458C5.32533 6.83371 5.48772 6.91574 5.58817 7.05636L6.78013 8.71038L9.41183 5.06083C9.51228 4.92187 9.67299 4.83817 9.84542 4.83817H10.6306C10.7394 4.83817 10.803 4.96205 10.7394 5.05078Z" fill="#27AE60"/>
</svg>
